<?xml version="1.0" encoding="utf-8"?>
<!-- Generator: Adobe Illustrator 20.1.0, SVG Export Plug-In . SVG Version: 6.00 Build 0)  -->
<svg version="1.1" id="Layer_1" xmlns="http://www.w3.org/2000/svg" xmlns:xlink="http://www.w3.org/1999/xlink" x="0px" y="0px"
	 viewBox="0 0 324.3 128" enable-background="new 0 0 324.3 128" xml:space="preserve">
<ellipse display="none" fill="#B55252" cx="240" cy="57" rx="50" ry="30"/>
<polygon fill="#007964" points="40.1,70.9 2.3,123.7 2.3,56.7 40.1,3.9 "/>
<polygon fill="#00BD9C" points="63.8,70.9 26,123.7 26,56.7 63.8,3.9 "/>
<polygon fill="#2BE7C4" points="87.4,70.9 49.7,123.7 49.7,56.7 87.4,3.9 "/>
<path fill="#FFFFFF" d="M318.8,72.8c-0.8-1.5-2-3.2-3.6-5.3c-1.1-1.3-1.9-2.5-2.4-3.4s-0.8-1.7-0.8-2.5c0-1.2,0.4-2.8,1.3-4.6
	c0.3-0.6,0.6-1.3,0.8-1.9c0.2-0.6,0.3-1.1,0.3-1.4c0-0.5-0.3-0.9-0.8-1.2c-0.5-0.2-1.5-0.4-2.9-0.4c-3,0-5,1.1-5.9,3.3
	c-1.5,3.4-2.7,6.1-3.6,8.1c-0.9,2-1.8,3.7-2.7,5.1c-1.1,1.7-2.5,3.6-4.3,6c-1.5,1.4-3.2,2.6-5,3.6c-2.9,1.6-5.4,2.4-7.6,2.4
	c-3.5,0-5.8-1.1-7.1-3.4c5.9-1.4,10-3.4,12.5-5.9c2.5-2.5,3.7-5.4,3.7-8.8c0-2.9-0.9-5.3-2.6-7c-1.7-1.7-4.1-2.6-6.9-2.6
	c-3.2,0-6.1,0.9-8.7,2.6c-2.6,1.7-4.6,4.1-6,7.1c-1.4,3-2.2,6.2-2.2,9.6c0,1.1,0.1,2.2,0.2,3.2c-1,1.1-1.9,2-2.7,2.7
	c-1.4,1.2-2.5,1.8-3.5,1.8c-1.4,0-2.2-1-2.2-3c0-1.4,0.5-4.3,1.4-8.6c1.1-5.1,1.6-8.6,1.6-10.5c0-3.2-1.6-4.9-4.8-4.9
	c-2.6,0-5.5,1.4-8.5,4.2c-3,2.8-5.8,7.2-8.3,13.4c0.1-0.9,0.4-2.2,0.8-4c0.9-4.2,1.4-7.1,1.4-8.7c0-1.6-0.4-2.9-1.1-3.7
	c-0.7-0.8-2-1.2-3.7-1.2c-1.7,0-3.6,0.7-5.6,2c-2,1.3-3.9,3.3-5.7,6c-1.9,2.7-3.5,6-4.8,9.8c0.2-2.2,0.4-4,0.7-5.5
	c0.3-1.5,0.7-3.2,1.2-5.2c0.7-2.8,1.1-4.6,1.1-5.4c0-0.7-0.2-1.2-0.6-1.4c-0.4-0.2-1.1-0.4-2.1-0.4c-1.8,0-3.3,0.3-4.3,1
	c-1,0.7-1.8,1.7-2.2,3.2c-1.7,5.4-2.6,11.1-2.7,17.1c-1.5,1.7-2.7,3-3.7,3.9c-1.3,1.2-2.5,1.8-3.4,1.8c-0.6,0-1.1-0.2-1.5-0.7
	s-0.6-1-0.6-1.8c0-2.2,0.6-6.2,1.7-11.9c0.7-3.9,1.1-6.4,1.1-7.5c0-1.7-1.2-2.6-3.7-2.6c-1.1,0-2.2,0.1-3.3,0.3
	c-0.2-1.1-0.6-1.9-0.9-2.3c-0.4-0.4-1.1-0.6-2.2-0.6c-3.4,0-6.7,1.1-9.7,3.2c-3.1,2.2-5.5,5-7.3,8.6c-0.5,1-0.9,2-1.3,3
	c-1.2,0.8-2.2,1.3-3,1.3c-1.2,0-1.9-0.9-1.9-2.6c0-0.5,0.2-1.7,0.6-3.7c0.4-2.5,0.7-4.1,0.7-4.7c0-3.2-1.6-4.9-4.9-4.9
	c-1.6,0-3.4,0.6-5.4,1.7c-2,1.1-4,3.1-6,5.7c-2,2.7-3.9,6.2-5.5,10.4c0.2-2.2,0.4-4,0.7-5.5c0.3-1.5,0.7-3.2,1.2-5.2
	c0.7-2.8,1.1-4.6,1.1-5.4c0-0.7-0.2-1.2-0.6-1.4c-0.4-0.2-1.1-0.4-2.1-0.4c-1.8,0-3.3,0.3-4.3,1c-1,0.7-1.8,1.7-2.2,3.2
	c-1,3.2-1.7,6.5-2.2,10c-2.3,0.3-4.5,0.5-6.4,0.5c-0.6,0-1.1,0-1.6-0.1c-1.4-0.1-2.6-0.1-3.6-0.1c-0.5,0-1.2,0.4-1.9,1.1
	c-0.7,0.7-1.3,1.6-1.8,2.6c-0.5,1-0.7,1.8-0.6,2.5c0.9,4,1.6,7.9,2.1,11.5c0.5,3.6,0.8,7.4,0.8,11.3c0,5.2-0.7,7.8-2.2,7.8
	c-0.8,0-1.4-2.7-1.7-8.1c-0.3-5.4-0.5-10.7-0.5-15.8c0-3.7,0.2-8,0.7-12.8c14-13.8,21-26.5,21-38.2c0-3.5-0.7-6.3-2-8.4
	c-1.3-2.1-3.1-3.1-5.5-3.1c-4.3,0-8.3,3.2-11.9,9.7c-3.6,6.4-6.4,14.6-8.5,24.4c-2.1,9.8-3.1,19.5-3.1,29.1c0,10.2,0.8,17.9,2.3,23
	c1.5,5.1,4.1,7.6,7.6,7.6c2.8,0,5.1-1.4,6.9-4.3c1.7-2.8,2.6-6.9,2.6-12.3c0-2.4-0.2-5.5-0.6-9.3c-0.4-3.8-1-7.2-1.6-10.3
	c2.2,0.4,4,0.7,5.2,0.7c1.4,0,2.8-0.1,3.8-0.3c0,0,0,0,0,0c0,4.4,0.3,7.6,1.1,9.6c0.8,2,2.1,3,4,3c1.5,0,2.7-0.4,3.4-1.2
	c0.7-0.8,1.3-2.4,1.9-4.7c0.7-3,1.7-5.9,2.9-8.7c1.2-2.7,2.4-4.9,3.6-6.6c1.2-1.7,2.2-2.5,2.9-2.5c0.5,0,0.8,0.4,0.8,1.2
	c0,0.3-0.1,1-0.1,2c-0.1,0.7-0.2,1.5-0.2,2.2c0,2.3,0.7,4.1,2.1,5.4c1.4,1.3,3.4,2,6,2c1.5,0,3-0.3,4.4-0.8c0.1,3.4,1,6.2,2.7,8.3
	c1.8,2.2,4.3,3.4,7.4,3.4c3.9,0,7.2-2.1,9.8-6.3c0.7,1.9,1.7,3.5,3.1,4.6c1.4,1.1,2.9,1.7,4.5,1.7c2.1,0,4.4-0.9,6.6-2.6
	c0.9-0.7,1.8-1.4,2.6-2.3c0.2,0.7,0.3,1.3,0.5,1.9c0.8,2,2.1,3,4,3c1.5,0,2.7-0.4,3.4-1.2c0.7-0.8,1.4-2.4,1.9-4.7
	c0.6-2.7,1.5-5.4,2.6-8.2c1.1-2.8,2.2-5.1,3.3-6.9c1.1-1.8,2.1-2.7,2.8-2.7c0.5,0,0.8,0.4,0.8,1.2c0,1-0.2,3.1-0.6,6.3
	c-0.5,3.6-0.7,6.3-0.7,8.2c0,2.2,0.4,4.1,1.2,5.7c0.8,1.6,2.1,2.4,3.7,2.4c1.6,0,2.7-0.4,3.5-1.2c0.7-0.8,1.4-2.4,1.9-4.8
	c0.7-3,1.7-5.9,2.9-8.7c1.2-2.7,2.4-4.9,3.6-6.6c1.2-1.7,2.1-2.5,2.8-2.5c0.5,0,0.8,0.4,0.8,1.2c0,1.2-0.3,3.4-1,6.5
	c-0.7,3.6-1,6.1-1,7.5c0,2.8,0.6,4.9,1.9,6.4c1.3,1.5,3.2,2.2,5.7,2.2c3.1,0,5.9-0.8,8.4-2.5c1.4-1,2.8-2.1,4.1-3.4
	c0.4,0.6,0.9,1.2,1.4,1.7c2.9,2.8,6.9,4.3,12.2,4.3c3.8,0,7.4-0.9,10.8-2.8c0.8-0.4,1.5-0.9,2.3-1.4c0.7-0.2,1.4-0.6,2-1.2
	c0.3-0.3,0.7-0.7,1-1c1-0.8,1.8-1.7,2.5-2.5c0.3-0.3,0.5-0.6,0.7-1c0.3-0.3,0.5-0.6,0.8-1c1.5-1.9,3-4.4,4.6-7.3
	c0.7,0.8,1.4,1.7,2.2,2.8c0.8,1.1,1.5,2.2,2,3.3c0.5,1.1,0.8,2.4,0.9,3.7c-0.4,0-1.1-0.1-2-0.3c-0.9-0.1-1.6-0.2-2.3-0.2
	c-1.8,0-3.2,0.5-4.2,1.4c-0.9,0.9-1.4,2.1-1.4,3.4c0,1.5,0.7,2.8,2.1,4c1.4,1.2,3.3,1.8,5.9,1.8c2.2,0,4.2-0.6,6-1.7
	c1.7-1.1,3.1-2.6,4.1-4.5c1-1.9,1.5-3.8,1.5-5.9C320,75.9,319.6,74.3,318.8,72.8z M129.6,41.6c1.3-5,2.6-9,3.9-12
	c1.3-3,2.4-4.6,3.3-4.6c1.2,0,1.9,1.5,1.9,4.6c0,4.3-1.1,8.9-3.3,13.8c-2.1,4.9-5.2,9.6-9.2,14.1C127.2,51.9,128.3,46.6,129.6,41.6z
	 M191.9,73.5c-0.4,2.1-1.2,3.9-2.2,5.1c-1,1.3-2,1.9-3.1,1.9c-1.1,0-2-0.4-2.6-1.1c-0.6-0.7-0.9-1.9-0.9-3.4c0-2.8,0.5-5.4,1.6-7.9
	c1-2.5,2.4-4.5,4.2-6c1.8-1.5,3.7-2.3,5.8-2.4L191.9,73.5z M273,71.3c0-3,0.7-5.6,2-7.8c1.3-2.1,2.9-3.2,4.7-3.2
	c0.9,0,1.6,0.3,2.2,0.9c0.5,0.6,0.8,1.3,0.8,2.3c0,1.8-0.9,3.5-2.6,4.8c-1.7,1.4-4,2.4-7,3.1V71.3z"/>
</svg>
